<?xml version="1.0" standalone="no"?>
<!DOCTYPE svg PUBLIC "-//W3C//DTD SVG 20010904//EN"
 "http://www.w3.org/TR/2001/REC-SVG-20010904/DTD/svg10.dtd">
<svg version="1.0" xmlns="http://www.w3.org/2000/svg"
 width="500.000000pt" height="500.000000pt" viewBox="0 0 500.000000 500.000000"
 preserveAspectRatio="xMidYMid meet">

<g transform="translate(0.000000,500.000000) scale(0.100000,-0.100000)"
fill="#000000" stroke="none">
<path d="M3517 4636 c-88 -44 -185 -124 -319 -259 l-107 -109 -38 13 c-21 6
-49 15 -63 20 -30 9 -166 34 -267 49 -187 26 -526 2 -773 -56 -109 -26 -281
-90 -374 -139 -53 -28 -214 -129 -245 -153 l-24 -19 -126 71 c-178 101 -244
130 -371 162 -144 36 -231 -7 -281 -137 -23 -61 -24 -75 -23 -279 0 -216 1
-222 49 -466 8 -38 24 -108 35 -155 12 -46 25 -97 29 -114 5 -22 1 -48 -17
-95 -113 -300 -185 -748 -167 -1028 l7 -102 -28 -2 c-16 0 -33 -2 -39 -3 -5
-1 -37 -5 -70 -9 -130 -16 -289 -65 -293 -91 -3 -14 1 -17 20 -13 12 3 64 15
115 27 50 11 139 24 197 27 l106 7 0 -24 c0 -40 38 -219 64 -304 25 -77 23
-105 -6 -105 -42 0 -258 -190 -258 -227 0 -25 25 -12 81 42 58 57 192 145 219
145 9 0 30 -30 53 -73 67 -132 168 -250 283 -332 142 -101 412 -218 599 -260
39 -8 93 -21 120 -28 32 -9 121 -15 243 -16 160 -2 215 1 327 20 112 18 135
25 133 38 -3 14 -33 16 -253 17 -138 1 -293 7 -345 13 -273 36 -483 106 -693
231 -169 100 -252 185 -338 344 l-41 76 27 10 c42 16 50 13 75 -33 229 -414
699 -611 1455 -610 349 0 625 45 960 157 368 123 658 284 855 472 149 143 233
276 285 449 41 139 39 135 86 135 l41 0 -6 -47 c-12 -83 -56 -215 -102 -303
-130 -252 -474 -516 -874 -673 -114 -45 -305 -104 -410 -127 -59 -13 -83 -27
-74 -41 3 -5 17 -9 32 -9 35 0 363 74 421 94 24 9 50 16 57 16 28 0 326 151
460 233 124 76 155 101 251 201 156 162 216 259 271 434 17 53 36 125 43 160
11 57 14 63 33 58 12 -4 44 -11 71 -16 28 -6 59 -14 70 -19 11 -5 38 -17 60
-26 22 -10 51 -26 66 -36 17 -12 30 -15 40 -8 11 8 9 14 -16 35 -42 36 -179
99 -246 113 l-56 12 -7 177 c-4 97 -9 195 -9 217 l-2 39 55 14 c101 25 214 42
280 42 70 0 97 10 85 30 -11 17 -254 7 -353 -15 -77 -16 -92 -14 -92 13 0 22
-54 235 -78 309 -85 258 -215 516 -357 708 l-52 70 -6 175 c-17 434 -90 741
-207 871 -54 59 -153 65 -253 15z m187 -67 c76 -60 141 -272 170 -557 20 -187
26 -415 17 -607 l-8 -160 43 -90 c82 -174 107 -232 169 -390 59 -150 116 -317
129 -376 5 -22 -3 -31 -67 -76 l-73 -50 0 116 c-1 149 -30 264 -97 391 -94
177 -282 325 -473 374 -80 21 -238 21 -318 0 -230 -59 -425 -233 -512 -456
-23 -57 -29 -66 -37 -51 -21 39 -84 97 -132 119 -64 31 -170 33 -231 5 -65
-30 -121 -87 -157 -161 l-33 -68 -43 52 c-143 173 -382 279 -586 262 -299 -24
-549 -229 -651 -533 -22 -66 -27 -100 -31 -223 -4 -122 -1 -157 15 -220 11
-41 18 -77 17 -78 -2 -2 -29 4 -61 15 -53 17 -57 20 -61 53 -11 96 44 581 93
831 l15 76 -40 123 c-108 323 -169 628 -178 885 -6 187 3 262 40 317 72 107
323 27 704 -224 l108 -71 45 27 c249 149 567 241 916 267 187 14 370 3 514
-32 45 -10 85 -19 90 -19 4 0 41 39 81 87 184 218 362 382 474 435 71 33 113
35 149 7z m-1024 -304 c79 -5 204 -26 318 -52 28 -7 28 -24 -2 -52 l-24 -22
-83 17 c-127 26 -510 31 -660 9 -272 -39 -596 -144 -750 -241 -38 -24 -42 -24
-65 -9 -13 8 -24 18 -24 20 0 13 179 120 272 165 214 101 433 152 727 169 69
4 142 6 161 5 19 -2 78 -6 130 -9z m1365 -913 c72 -112 179 -324 226 -449 60
-156 129 -403 129 -457 0 -11 -80 -51 -85 -43 -1 1 -12 36 -25 77 -54 183
-180 498 -274 690 l-45 90 6 85 c3 47 9 85 12 85 3 -1 28 -35 56 -78z m-519
-317 c57 -19 110 -42 140 -62 21 -13 17 -23 -228 -516 -137 -276 -270 -545
-296 -597 -26 -52 -48 -97 -50 -99 -4 -7 -59 26 -120 71 -53 40 -133 132 -163
191 l-16 31 177 355 c97 196 210 423 251 505 l73 149 92 -6 c50 -4 113 -13
140 -22z m-2834 -218 c16 -50 16 -56 -12 -222 -38 -224 -59 -416 -68 -606 l-7
-154 -40 3 c-22 2 -42 6 -45 9 -10 10 -3 372 9 463 33 250 116 588 139 566 4
-4 15 -31 24 -59z m3156 -6 c23 -32 42 -65 42 -73 0 -7 -112 -240 -250 -516
-137 -277 -250 -507 -250 -512 0 -4 -5 -10 -11 -12 -14 -5 -159 9 -165 15 -4
4 164 349 543 1114 14 28 31 49 37 47 6 -3 30 -31 54 -63z m-2187 -86 c58 -17
181 -75 177 -84 -6 -11 -343 -691 -465 -936 -69 -137 -128 -253 -132 -257 -12
-13 -136 78 -194 144 -31 35 -67 82 -79 105 l-22 42 58 118 c32 65 144 290
249 501 l189 382 82 0 c45 0 107 -7 137 -15z m822 -61 c96 -49 113 -90 142
-338 8 -77 19 -144 24 -150 5 -6 16 -36 26 -66 9 -30 37 -90 62 -134 51 -90
51 -110 -2 -163 -69 -69 -176 -31 -215 75 -11 31 -10 36 6 45 11 6 40 31 67
57 35 35 47 55 47 77 0 63 -92 103 -195 84 -157 -29 -221 -109 -142 -178 28
-24 53 -35 136 -59 23 -7 5 -93 -28 -134 -53 -66 -127 -69 -188 -8 l-32 33 15
55 c20 75 33 265 23 325 -46 269 -47 323 -13 391 12 22 41 53 68 72 41 27 57
32 108 32 34 0 72 -7 91 -16z m-480 -173 c26 -34 45 -66 43 -69 -2 -4 -119
-240 -260 -526 l-257 -519 -77 7 c-42 4 -80 10 -84 14 -9 10 564 1163 577
1159 5 -2 31 -31 58 -66z m2420 -197 c4 -38 6 -123 5 -189 l-3 -120 -42 -3
-43 -3 0 113 c0 62 -3 142 -6 178 l-6 65 33 17 c19 9 39 15 44 14 6 -1 13 -34
18 -72z m-169 -164 c9 -167 12 -160 -87 -179 -75 -14 -132 -41 -132 -61 0 -18
22 -18 122 1 40 7 76 10 79 6 22 -22 -72 -240 -151 -352 -106 -150 -322 -318
-558 -433 -494 -243 -999 -347 -1518 -314 -627 41 -994 207 -1183 533 l-26 47
22 6 c13 3 58 9 101 12 82 7 91 12 80 40 -6 15 -18 16 -119 10 l-113 -6 -15
52 c-44 154 -57 248 -33 248 6 0 39 -8 71 -18 57 -17 61 -20 100 -87 83 -139
247 -274 383 -314 201 -60 397 -41 573 56 91 50 215 177 274 279 l46 82 33
-33 c45 -45 104 -62 159 -46 41 13 100 63 124 106 11 19 12 18 47 -12 43 -38
103 -56 153 -47 44 8 102 57 121 101 7 18 15 33 18 33 3 0 24 -19 47 -41 78
-76 192 -142 304 -175 119 -36 361 -19 473 33 168 79 333 271 395 460 16 48
24 57 99 108 45 30 87 53 92 51 6 -1 14 -67 19 -146z m-1746 -39 c10 -6 7 -12
-13 -25 -32 -21 -100 -18 -100 4 0 22 87 38 113 21z m-1894 -343 c2 -13 10
-57 16 -98 7 -41 23 -109 36 -150 13 -41 22 -75 21 -76 -15 -10 -68 -21 -72
-14 -21 34 -65 205 -80 313 l-6 47 40 0 c34 0 41 -4 45 -22z"/>
<path d="M3515 4385 c-127 -95 -329 -316 -354 -386 -15 -43 7 -69 126 -149
154 -103 207 -152 316 -288 52 -65 102 -124 111 -131 21 -18 62 -6 78 22 18
32 23 345 8 507 -38 418 -124 546 -285 425z m121 -102 c41 -96 79 -406 72
-590 l-3 -91 -65 81 c-36 45 -99 110 -140 145 -91 77 -81 69 -157 116 -35 22
-63 41 -63 44 0 34 299 332 332 332 4 0 15 -17 24 -37z"/>
<path d="M3549 4253 c-53 -46 -95 -94 -91 -106 1 -5 -2 -6 -8 -2 -14 9 -70
-54 -63 -71 3 -10 0 -12 -10 -8 -16 6 -42 -28 -29 -40 3 -4 0 -5 -8 -1 -9 3
-20 -3 -27 -14 -10 -15 -9 -20 2 -25 9 -3 12 0 8 10 -7 18 11 18 31 -1 8 -8
26 -15 40 -15 28 0 34 -18 14 -38 -8 -8 -9 -12 -1 -12 6 0 13 6 16 13 3 9 7 9
20 -2 21 -17 22 -35 3 -28 -10 4 -13 1 -10 -8 3 -7 12 -16 20 -19 10 -4 12 -2
8 5 -4 7 -1 10 7 7 8 -3 14 -11 14 -19 0 -8 11 -23 25 -34 14 -11 33 -29 42
-40 10 -11 17 -15 18 -9 0 6 -11 21 -25 34 -14 13 -25 29 -25 35 0 6 -5 16
-11 22 -18 18 -49 113 -49 148 1 53 34 123 84 180 27 30 56 55 63 55 8 0 11 5
8 10 -10 16 -19 12 -66 -27z"/>
<path d="M740 3987 c-77 -39 -96 -169 -59 -407 31 -195 95 -451 136 -537 45
-96 92 -80 143 49 78 196 146 312 269 456 68 80 91 112 91 129 0 22 -70 92
-140 138 -130 86 -340 185 -393 185 -12 0 -33 -6 -47 -13z m173 -152 c146 -71
277 -148 277 -164 0 -3 -10 -17 -23 -31 -123 -137 -234 -313 -268 -428 -7 -23
-16 -39 -20 -35 -16 17 -68 241 -94 403 -15 96 -21 281 -8 293 14 15 46 5 136
-38z"/>
<path d="M790 3850 c0 -5 6 -10 13 -10 6 0 25 -7 41 -15 16 -9 37 -13 45 -9
11 4 3 11 -29 24 -52 22 -70 24 -70 10z"/>
<path d="M900 3804 c0 -3 10 -17 23 -30 33 -35 52 -29 20 6 -24 28 -43 38 -43
24z"/>
<path d="M983 3739 c-1 -10 2 -19 8 -19 11 0 12 27 1 34 -4 2 -9 -4 -9 -15z"/>
<path d="M1023 3743 c-7 -2 -13 -11 -13 -18 0 -7 -5 -15 -11 -17 -9 -3 -7 -26
5 -82 l18 -78 -26 -58 c-30 -66 -34 -102 -7 -50 11 19 17 38 14 43 -2 4 3 10
11 13 9 3 16 13 16 20 0 8 11 19 25 24 14 5 25 13 25 17 0 5 14 23 30 42 36
41 37 43 6 35 -22 -5 -25 -3 -22 23 2 17 10 29 21 31 14 3 12 7 -11 23 -33 22
-60 24 -67 7 -4 -8 -6 -7 -6 4 -1 9 5 19 12 21 6 3 8 5 2 5 -5 0 -16 -2 -22
-5z"/>
<path d="M3011 3477 c-19 -6 -51 -27 -73 -47 -46 -45 -52 -93 -15 -128 21 -20
34 -22 123 -22 77 0 119 -6 185 -25 98 -29 157 -32 166 -9 17 45 -84 167 -179
216 -58 30 -141 36 -207 15z"/>
<path d="M1490 3246 c-57 -18 -109 -55 -150 -107 -42 -54 -80 -143 -80 -190 0
-57 35 -49 180 41 36 23 103 53 150 67 126 40 159 87 106 150 -41 48 -128 65
-206 39z"/>
</g>
</svg>
